<?xml version="1.0" encoding="UTF-8"?>
<!DOCTYPE svg PUBLIC "-//W3C//DTD SVG 1.1//EN" "http://www.w3.org/Graphics/SVG/1.1/DTD/svg11.dtd">
<!-- Creator: CorelDRAW -->
<svg xmlns="http://www.w3.org/2000/svg" xml:space="preserve" width="48px" height="48px" version="1.1" shape-rendering="geometricPrecision" text-rendering="geometricPrecision" image-rendering="optimizeQuality" fill-rule="evenodd" clip-rule="evenodd"
viewBox="0 0 4800 4800"
 xmlns:xlink="http://www.w3.org/1999/xlink">
  <defs>
  <style type="text/css">
   <![CDATA[
    .svgFillBaseColor {fill:#000000}
    .svgFillAccent1   {fill:#FF0000}
    .svgFillAccent2   {fill:#FF6600}
    .svgFillAccent3   {fill:#06A9F4}
    .svgFillAccent4   {fill:#009933}
    .svgFillAccent5   {fill:#FFFF00}
   ]]>
  </style>
 </defs>
 <g id="Layer_x0020_1">
  <metadata id="CorelCorpID_0Corel-Layer"/>
  <path class="svgFillBaseColor" fill-rule="nonzero" d="M1800 600l1200 0 0 1068 577 1332 923 0 0 1200 -1200 0 0 -300 -1800 0 0 300 -1200 0 0 -1200 1200 0 0 600 1800 0 0 -507 -556 -1293 -944 0 0 -1200zm-600 2700l-600 0 0 600 600 0 0 -600zm3000 0l-600 0 0 600 600 0 0 -600zm-1500 -2400l-600 0 0 600 600 0 0 -600z"/>
  <path class="svgFillBaseColor" fill-rule="nonzero" d="M3800 1500l-300 0 0 300 300 0 0 -300zm-3200 1200l300 0 0 300 -300 0 0 -300zm3600 0l-300 0 0 300 300 0 0 -300zm-3500 -595l300 0 0 300 -300 0 0 -300zm3400 0l-300 0 0 300 300 0 0 -300zm-3100 -605l300 0 0 300 -300 0 0 -300zm500 -300l300 0 0 300 -300 0 0 -300zm1500 0l300 0 0 300 -300 0 0 -300z"/>
  <text x="-6715" y="6741"  class="svgFillBaseColor" fill-rule="nonzero" font-weight="normal" font-size="1066.66px" font-family="Humanst521 BT">common/res/crlcmnres/rcbin/comm_496.ico</text>
 </g>
</svg>
