<?xml version="1.0" encoding="UTF-8"?>
<!DOCTYPE svg PUBLIC "-//W3C//DTD SVG 1.1//EN" "http://www.w3.org/Graphics/SVG/1.1/DTD/svg11.dtd">
<!-- Creator: CorelDRAW -->
<svg xmlns="http://www.w3.org/2000/svg" xml:space="preserve" width="48px" height="48px" version="1.1" shape-rendering="geometricPrecision" text-rendering="geometricPrecision" image-rendering="optimizeQuality" fill-rule="evenodd" clip-rule="evenodd"
viewBox="0 0 4800 4800"
 xmlns:xlink="http://www.w3.org/1999/xlink">
  <defs>
  <style type="text/css">
   <![CDATA[
    .svgFillBaseColor {fill:#000000}
    .svgFillAccent1   {fill:#FF0000}
    .svgFillAccent2   {fill:#FF6600}
    .svgFillAccent3   {fill:#06A9F4}
    .svgFillAccent4   {fill:#009933}
    .svgFillAccent5   {fill:#FFFF00}
   ]]>
  </style>
 </defs>
 <g id="Layer_x0020_1">
  <metadata id="CorelCorpID_0Corel-Layer"/>
  <text x="-12018" y="8240"  class="svgFillBaseColor" fill-rule="nonzero" font-weight="normal" font-size="1066.66px" font-family="Humanst521 BT">Apps\Public\Res\VGCore\AppFunctionalCore\RCBin\DesBtn_1021.ico</text>
  <g>
   <path class="svgFillBaseColor" fill-rule="nonzero" d="M3600 1800l1200 0 0 1200 -1200 0 0 -1200zm900 300l-600 0 0 600 600 0 0 -600z"/>
  </g>
  <g>
   <path class="svgFillBaseColor" fill-rule="nonzero" d="M1500 0l1200 0 0 1200 -1200 0 0 -1200zm900 300l-600 0 0 600 600 0 0 -600z"/>
  </g>
  <g>
   <path class="svgFillBaseColor" fill-rule="nonzero" d="M0 1800l1200 0 0 1200 -1200 0 0 -1200zm900 300l-600 0 0 600 600 0 0 -600z"/>
  </g>
  <g>
   <polygon class="svgFillBaseColor" fill-rule="nonzero" points="1644,465 1759,743 1710,764 1661,786 1614,810 1567,836 1521,863 1476,891 1431,921 1388,952 1345,984 1304,1017 1263,1052 1224,1088 1185,1125 1147,1164 1111,1203 1075,1244 1041,1286 1007,1328 975,1372 944,1417 914,1463 886,1510 858,1558 832,1606 807,1656 784,1706 762,1758 741,1810 721,1863 703,1916 686,1971 671,2026 381,1950 398,1887 418,1824 438,1763 461,1702 485,1642 510,1583 537,1525 566,1468 596,1412 628,1357 661,1303 695,1250 731,1198 768,1147 807,1098 847,1050 888,1002 930,957 974,912 1019,869 1065,827 1112,787 1161,747 1210,710 1261,674 1313,639 1366,606 1419,575 1474,545 1530,517 1587,490 "/>
  </g>
  <g>
   <path class="svgFillBaseColor" fill-rule="nonzero" d="M2400 4785l0 -300 0 0 81 -2 80 -6 80 -9 78 -14 78 -17 76 -20 75 -24 73 -27 72 -31 71 -34 69 -37 68 -40 66 -43 64 -47 62 -49 60 -52 58 -55 56 -57 54 -60 51 -62 49 -65 46 -68 44 -69 40 -72 39 -74 35 -76 32 -78 29 -80 26 -81 22 -84 20 -85 16 -87 296 48 -18 99 -22 97 -26 96 -30 94 -33 92 -37 89 -41 88 -44 85 -47 83 -50 80 -54 78 -56 75 -59 72 -62 70 -65 66 -68 64 -70 60 -72 58 -75 54 -77 50 -79 47 -81 44 -83 40 -85 36 -87 32 -88 28 -90 24 -91 20 -92 16 -94 11 -94 7 -96 2 0 0zm-2072 -1900l297 -42 14 88 18 87 22 85 25 83 28 82 31 79 35 78 37 76 41 73 43 71 46 69 49 67 51 64 54 61 56 59 58 56 61 53 62 51 65 47 66 45 69 41 70 38 71 35 73 31 75 28 76 25 77 21 78 17 80 14 80 10 82 6 82 2 0 300 -97 -2 -96 -7 -95 -12 -94 -16 -92 -21 -91 -24 -89 -29 -88 -33 -86 -37 -84 -41 -82 -45 -80 -48 -77 -52 -76 -56 -73 -58 -70 -62 -68 -65 -65 -69 -62 -71 -59 -74 -56 -77 -54 -79 -50 -83 -46 -84 -44 -87 -39 -90 -36 -91 -33 -94 -28 -95 -25 -98 -21 -99 -16 -101z"/>
  </g>
  <g>
   <polygon class="svgFillBaseColor" fill-rule="nonzero" points="4406,1902 4117,1984 4096,1913 4072,1844 4046,1776 4018,1710 3987,1645 3955,1582 3920,1520 3884,1460 3845,1401 3805,1345 3763,1290 3719,1236 3673,1185 3625,1136 3576,1088 3526,1043 3474,999 3421,958 3366,919 3310,882 3252,847 3194,814 3134,784 3073,756 3011,731 2948,707 2884,687 2820,669 2754,653 2688,640 2620,630 2553,622 2580,323 2660,332 2739,345 2817,360 2895,378 2971,400 3046,424 3120,451 3193,481 3264,514 3334,549 3403,588 3470,628 3536,672 3600,717 3662,766 3723,816 3781,869 3838,924 3893,982 3946,1041 3997,1103 4046,1166 4093,1232 4137,1299 4179,1369 4219,1440 4257,1513 4292,1587 4324,1664 4354,1742 4381,1821 "/>
  </g>
 </g>
</svg>
