<?xml version="1.0" encoding="UTF-8"?>
<!DOCTYPE svg PUBLIC "-//W3C//DTD SVG 1.1//EN" "http://www.w3.org/Graphics/SVG/1.1/DTD/svg11.dtd">
<!-- Creator: CorelDRAW -->
<svg xmlns="http://www.w3.org/2000/svg" xml:space="preserve" width="48px" height="48px" version="1.1" shape-rendering="geometricPrecision" text-rendering="geometricPrecision" image-rendering="optimizeQuality" fill-rule="evenodd" clip-rule="evenodd"
viewBox="0 0 4800 4800"
 xmlns:xlink="http://www.w3.org/1999/xlink">
 <g id="Layer_x0020_1">
  <metadata id="CorelCorpID_0Corel-Layer"/>
  <path fill="black" fill-rule="nonzero" d="M1800 0c4,147 -9,296 7,443 62,583 94,1069 653,1856l67 95 -67 95c-558,796 -590,1288 -653,1868 -16,148 1,295 -7,443l-1800 0 0 -4800 1800 0zm-300 300l-1200 0 8 4191 1192 9c5,-48 5,-92 9,-135 65,-602 42,-1159 588,-1970 -547,-804 -521,-1356 -586,-1961 -5,-43 -6,-86 -11,-134z"/>
  <path fill="red" d="M3953 3300l-653 0 0 -300 603 0 0 -2c10,1 21,2 31,2l19 0 0 0c87,1 172,-22 247,-64 92,-51 171,-130 225,-231 78,-146 93,-312 56,-463 -37,-149 -126,-282 -258,-364 -49,-31 -101,-52 -156,-65 -37,-9 -75,-13 -114,-13l0 0 -21 0c-10,1 -20,1 -30,2l0 -2 -602 0 0 -300 653 0 0 0c62,0 123,7 182,21 86,20 169,55 246,102 201,125 335,325 390,547 55,220 32,462 -83,675 -82,153 -202,274 -342,352 -120,67 -254,103 -393,103l0 0z"/>
  <path fill="black" d="M2700 1500l300 0 0 300 -300 0 0 -300zm0 1500l300 0 0 300 -300 0 0 -300z"/>
  <text x="-8725" y="7858"  fill="black" font-weight="normal" font-size="1066.66px" font-family="Humanst521 BT">Apps\PhotoPnt\Tools\BrushTool\RCBin\LiquidToolAttract.ico</text>
 </g>
</svg>
