<?xml version="1.0" encoding="UTF-8"?>
<!DOCTYPE svg PUBLIC "-//W3C//DTD SVG 1.1//EN" "http://www.w3.org/Graphics/SVG/1.1/DTD/svg11.dtd">
<!-- Creator: CorelDRAW -->
<svg xmlns="http://www.w3.org/2000/svg" xml:space="preserve" width="48px" height="48px" version="1.1" shape-rendering="geometricPrecision" text-rendering="geometricPrecision" image-rendering="optimizeQuality" fill-rule="evenodd" clip-rule="evenodd"
viewBox="0 0 4800 4800"
 xmlns:xlink="http://www.w3.org/1999/xlink">
  <defs>
  <style type="text/css">
   <![CDATA[
    .svgFillBaseColor {fill:#000000}
    .svgFillAccent1   {fill:#FF0000}
    .svgFillAccent2   {fill:#FF6600}
    .svgFillAccent3   {fill:#06A9F4}
    .svgFillAccent4   {fill:#009933}
    .svgFillAccent5   {fill:#FFFF00}
   ]]>
  </style>
 </defs>
 <g id="Layer_x0020_1">
  <metadata id="CorelCorpID_0Corel-Layer"/>
  <g transform="matrix(1.00036 0 0 1 -35.1609 4640.24)">
   <text x="-8071" y="2400"  class="svgFillBaseColor" font-weight="normal" font-size="1066.66px" font-family="Humanst521 BT">Common\Res\CrlCmnRes\RCBin\comm_457.ico</text>
  </g>
  <path class="svgFillBaseColor" d="M2700 2700l2100 0 0 2100 -2100 0 0 -2100zm1800 300l-1500 0 0 1500 1500 0 0 -1500z"/>
  <path class="svgFillBaseColor" d="M1650 0c580,0 1050,470 1050,1050 0,580 -470,1050 -1050,1050 -580,0 -1050,-470 -1050,-1050 0,-580 470,-1050 1050,-1050zm530 520c-135,-136 -323,-220 -530,-220 -207,0 -395,84 -530,220 -136,135 -220,323 -220,530 0,207 84,395 220,530 135,136 323,220 530,220 207,0 395,-84 530,-220 136,-135 220,-323 220,-530 0,-207 -84,-395 -220,-530z"/>
  <path class="svgFillBaseColor" d="M1676 3900l-1376 -1376 0 1376 1376 0zm724 300l-2400 -2400 0 2400 2400 0z"/>
 </g>
</svg>
