<?xml version="1.0" encoding="UTF-8"?>
<!DOCTYPE svg PUBLIC "-//W3C//DTD SVG 1.1//EN" "http://www.w3.org/Graphics/SVG/1.1/DTD/svg11.dtd">
<!-- Creator: CorelDRAW -->
<svg xmlns="http://www.w3.org/2000/svg" xml:space="preserve" width="48px" height="48px" version="1.1" shape-rendering="geometricPrecision" text-rendering="geometricPrecision" image-rendering="optimizeQuality" fill-rule="evenodd" clip-rule="evenodd"
viewBox="0 0 4800 4800"
 xmlns:xlink="http://www.w3.org/1999/xlink">
 <defs>
  <style type="text/css">
   <![CDATA[
    .svgFillBaseColor {fill:#000000}
    .svgFillAccent1   {fill:#FF0000}
    .svgFillAccent2   {fill:#FF6600}
    .svgFillAccent3   {fill:#06A9F4}
    .svgFillAccent4   {fill:#009933}
    .svgFillAccent5   {fill:#FFFF00}
   ]]>
  </style>
 </defs>
 <g id="Layer_x0020_1">
  <metadata id="CorelCorpID_0Corel-Layer"/>
  <path class="svgFillBaseColor" fill-rule="nonzero" d="M2400 0c1325,0 2400,1075 2400,2400 0,1325 -1075,2400 -2400,2400 -1325,0 -2400,-1075 -2400,-2400 0,-1325 1075,-2400 2400,-2400zm1485 915c-380,-380 -905,-615 -1485,-615 -580,0 -1105,235 -1485,615 -380,380 -615,905 -615,1485 0,580 235,1105 615,1485 380,380 905,615 1485,615 580,0 1105,-235 1485,-615 380,-380 615,-905 615,-1485 0,-580 -235,-1105 -615,-1485z"/>
  <text x="-6715" y="7041"  class="svgFillBaseColor" fill-rule="nonzero" font-weight="normal" font-size="1066.66px" font-family="Humanst521 BT">common/res/crlcmnres/rcbin/comm_3.ico</text>
 </g>
</svg>
