<?xml version="1.0" encoding="UTF-8"?>
<!DOCTYPE svg PUBLIC "-//W3C//DTD SVG 1.1//EN" "http://www.w3.org/Graphics/SVG/1.1/DTD/svg11.dtd">
<!-- Creator: CorelDRAW -->
<svg xmlns="http://www.w3.org/2000/svg" xml:space="preserve" width="48px" height="48px" version="1.1" shape-rendering="geometricPrecision" text-rendering="geometricPrecision" image-rendering="optimizeQuality" fill-rule="evenodd" clip-rule="evenodd"
viewBox="0 0 4800 4800"
 xmlns:xlink="http://www.w3.org/1999/xlink">
 <defs>
  <style type="text/css">
   <![CDATA[
    .svgFillBaseColor {fill:#000000}
    .svgFillAccent1   {fill:#FF0000}
    .svgFillAccent2   {fill:#FF6600}
    .svgFillAccent3   {fill:#06A9F4}
    .svgFillAccent4   {fill:#009933}
    .svgFillAccent5   {fill:#FFFF00}
   ]]>
  </style>
 </defs>
 <g id="Layer_x0020_1">
  <metadata id="CorelCorpID_0Corel-Layer"/>
  <text x="-11812" y="8240"  class="svgFillBaseColor" fill-rule="nonzero" font-weight="normal" font-size="1066.66px" font-family="Humanst521 BT">Apps\Public\Res\VGCore\AppFunctionalCore\RCBin\drwbtn_9.ico</text>
  <path class="svgFillBaseColor" fill-rule="nonzero" d="M1405 4500l2005 0 0 1c23,-1 45,-6 66,-14 25,-10 47,-25 67,-45 20,-19 34,-42 44,-66 12,-30 11,-46 13,-76l0 -1600 -2400 0 0 1599c0,26 5,51 14,76 10,24 25,46 45,66 19,19 42,35 66,44 26,10 53,15 80,15zm1895 -4500c75,-3 186,1 256,26 70,24 135,64 189,118 51,51 90,113 115,181 23,62 43,129 40,196l0 3776c0,66 -11,131 -35,191 -25,62 -62,118 -110,166 -48,48 -105,85 -167,110 -56,23 -116,35 -178,36l-1910 0 -96 -1c-66,0 -130,-12 -190,-36 -62,-25 -120,-62 -168,-110 -47,-48 -84,-104 -109,-166 -24,-59 -36,-122 -36,-188l-1 0 0 -3399 791 -900 1609 0z"/>
 </g>
</svg>
