<?xml version="1.0" encoding="UTF-8"?>
<!DOCTYPE svg PUBLIC "-//W3C//DTD SVG 1.1//EN" "http://www.w3.org/Graphics/SVG/1.1/DTD/svg11.dtd">
<!-- Creator: CorelDRAW -->
<svg xmlns="http://www.w3.org/2000/svg" xml:space="preserve" width="48px" height="48px" version="1.1" shape-rendering="geometricPrecision" text-rendering="geometricPrecision" image-rendering="optimizeQuality" fill-rule="evenodd" clip-rule="evenodd"
viewBox="0 0 4800 4800"
 xmlns:xlink="http://www.w3.org/1999/xlink">
  <defs>
  <style type="text/css">
   <![CDATA[
    .svgFillBaseColor {fill:#000000}
    .svgFillAccent1   {fill:#FF0000}
    .svgFillAccent2   {fill:#FF6600}
    .svgFillAccent3   {fill:#06A9F4}
    .svgFillAccent4   {fill:#009933}
    .svgFillAccent5   {fill:#FFFF00}
   ]]>
  </style>
 </defs>
 <g id="Layer_x0020_1">
  <metadata id="CorelCorpID_0Corel-Layer"/>
  <path class="svgFillAccent2" d="M0 4800l550 0 1177 -1119 -577 -531 -1150 1050c0,0 0,650 0,600z"/>
  <path class="svgFillBaseColor" fill-rule="nonzero" d="M3119 371l120 119 370 -370c80,-80 185,-120 291,-120 105,0 211,40 291,120l478 478c80,81 121,186 121,292 0,105 -41,211 -121,291l-370 370 93 93 99 99 -92 105 -177 204 -106 121 -113 -113 -276 -276 -2915 2928 -88 88 -124 0 -300 0 -300 0 0 -300 0 -300 0 -124 88 -88 2914 -2929 -272 -272 -99 -99 92 -105 177 -204 106 -121 113 113zm395 1200l-300 -299 -2914 2928 0 300 300 0 2914 -2929z"/>
  <text x="-9970" y="8240"  class="svgFillBaseColor" fill-rule="nonzero" font-weight="normal" font-size="1066.66px" font-family="Humanst521 BT">Common\Res\CrlCmnRes\RCBin\eyedrop_copy_color.ico</text>
 </g>
</svg>
