<?xml version="1.0" encoding="UTF-8"?>
<!DOCTYPE svg PUBLIC "-//W3C//DTD SVG 1.1//EN" "http://www.w3.org/Graphics/SVG/1.1/DTD/svg11.dtd">
<!-- Creator: CorelDRAW -->
<svg xmlns="http://www.w3.org/2000/svg" xml:space="preserve" width="48px" height="48px" version="1.1" shape-rendering="geometricPrecision" text-rendering="geometricPrecision" image-rendering="optimizeQuality" fill-rule="evenodd" clip-rule="evenodd"
viewBox="0 0 4800 4800"
 xmlns:xlink="http://www.w3.org/1999/xlink">
 <defs>
  <style type="text/css">
   <![CDATA[
    .svgFillBaseColor {fill:#000000}
    .svgFillAccent1   {fill:#FF0000}
    .svgFillAccent2   {fill:#FF6600}
    .svgFillAccent3   {fill:#06A9F4}
    .svgFillAccent4   {fill:#009933}
    .svgFillAccent5   {fill:#FFFF00}
   ]]>
  </style>
 </defs>
 <g id="Layer_x0020_1">
  <metadata id="CorelCorpID_0Corel-Layer"/>
  <path class="svgFillAccent2" d="M3250 2700l-950 1000 -1000 -1000 1950 0zm1550 300l0 1800c0,0 -735,-60 -578,-720 105,-360 525,-1080 578,-1080z"/>
  <path class="svgFillBaseColor" fill-rule="nonzero" d="M2354 0l2446 2446 -638 639 -88 -89 -1655 1655 -120 120 -120 -120 -2030 -2030 -120 -120 120 -120 1655 -1654 -89 -89 639 -638zm1480 2757l-1791 -1791 -1535 1535 1791 1791 1535 -1535z"/>
  <text x="-6930" y="6741"  class="svgFillBaseColor" fill-rule="nonzero" font-weight="normal" font-size="1066.66px" font-family="Humanst521 BT">common/res/crlcmnres/rcbin/comm_364.ico</text>
 </g>
</svg>
