<?xml version="1.0" encoding="UTF-8"?>
<!DOCTYPE svg PUBLIC "-//W3C//DTD SVG 1.1//EN" "http://www.w3.org/Graphics/SVG/1.1/DTD/svg11.dtd">
<!-- Creator: CorelDRAW -->
<svg xmlns="http://www.w3.org/2000/svg" xml:space="preserve" width="48px" height="48px" version="1.1" shape-rendering="geometricPrecision" text-rendering="geometricPrecision" image-rendering="optimizeQuality" fill-rule="evenodd" clip-rule="evenodd"
viewBox="0 0 4800 4800"
 xmlns:xlink="http://www.w3.org/1999/xlink">
 <defs>
  <style type="text/css">
   <![CDATA[
    .svgFillBaseColor {fill:#000000}
    .svgFillAccent1   {fill:#FF0000}
    .svgFillAccent2   {fill:#FF6600}
    .svgFillAccent3   {fill:#06A9F4}
    .svgFillAccent4   {fill:#009933}
    .svgFillAccent5   {fill:#FFFF00}
   ]]>
  </style>
 </defs>
 <g id="Layer_x0020_1">
  <metadata id="CorelCorpID_0Corel-Layer"/>
  <path class="svgFillBaseColor" fill-rule="nonzero" d="M0 900l900 0 0 300 -900 0 0 -300zm900 0l0 -900 300 0 0 900 -300 0zm300 0l900 0 0 300 -900 0 0 900 -300 0 0 -900 300 0 0 -300z"/>
  <path class="svgFillBaseColor" fill-rule="nonzero" d="M1201 3300l0 1063c1,15 5,29 10,43 7,18 19,35 34,50 29,29 68,44 106,44 39,0 77,-15 106,-44 15,-14 26,-32 33,-50 6,-14 10,-28 11,-43l0 -615 0 0c0,-57 11,-112 32,-164 23,-57 56,-109 99,-152 88,-88 204,-132 319,-132 115,0 230,44 318,132 43,43 76,94 99,149l0 1c19,48 31,97 33,150l0 314 0 0c0,21 3,41 11,60 7,18 18,35 34,50 29,29 67,44 106,44 38,0 76,-15 106,-44 14,-15 26,-32 33,-50 6,-14 9,-29 10,-44l0 -10c-1,-62 10,-112 32,-168 23,-57 56,-109 99,-152 88,-88 204,-132 319,-132 115,0 230,44 318,132 43,43 76,94 99,149l0 1c19,49 32,101 33,155l0 26c1,15 4,29 10,43 7,18 18,35 34,50 29,29 67,44 106,44 38,0 76,-15 106,-44 14,-15 25,-32 33,-50 8,-19 11,-39 10,-59l0 -4c0,-123 52,-235 134,-316 81,-80 193,-130 317,-130 123,0 235,50 317,130 82,81 133,193 133,316l-300 0c0,-41 -17,-77 -43,-103 -27,-27 -65,-43 -107,-43 -42,0 -80,16 -107,43 -27,26 -44,62 -44,103l0 8c1,59 -11,113 -32,167l0 1c-23,55 -56,106 -99,149 -88,88 -203,132 -318,132 -115,0 -231,-44 -319,-132 -43,-43 -76,-95 -99,-152 -16,-40 -28,-83 -32,-127l0 -51c-2,-15 -5,-30 -11,-44 -8,-18 -19,-35 -33,-50 -30,-29 -68,-44 -106,-44 -39,0 -77,15 -106,44 -16,15 -27,32 -34,50 -6,15 -9,29 -10,45 0,65 -8,119 -32,179l0 1c-23,55 -56,106 -99,149 -88,88 -203,132 -318,132 -115,0 -231,-44 -318,-132 -43,-43 -77,-95 -100,-152 -17,-43 -30,-89 -33,-136l0 -333c0,-18 -4,-36 -11,-53 -8,-18 -19,-35 -33,-50 -30,-29 -68,-44 -106,-44 -39,0 -77,15 -106,44 -16,15 -27,32 -34,50 -7,17 -11,35 -11,54l1 0 0 620 -1 0c-2,52 -13,103 -32,150l0 1c-22,55 -56,106 -99,149 -88,88 -203,132 -318,132 -115,0 -230,-44 -318,-132 -43,-43 -77,-95 -99,-152 -15,-37 -28,-76 -33,-116l0 -1100 -1 0 0 -600 300 0 0 600 1 0z"/>
  <text x="-7538" y="7040"  class="svgFillBaseColor" fill-rule="nonzero" font-weight="normal" font-size="1066.66px" font-family="Humanst521 BT">Common\Res\CrlCmnRes\RCBin\comm_4.ico</text>
 </g>
</svg>
