<?xml version="1.0" encoding="UTF-8"?>
<!DOCTYPE svg PUBLIC "-//W3C//DTD SVG 1.1//EN" "http://www.w3.org/Graphics/SVG/1.1/DTD/svg11.dtd">
<!-- Creator: CorelDRAW -->
<svg xmlns="http://www.w3.org/2000/svg" xml:space="preserve" width="48px" height="48px" version="1.1" shape-rendering="geometricPrecision" text-rendering="geometricPrecision" image-rendering="optimizeQuality" fill-rule="evenodd" clip-rule="evenodd"
viewBox="0 0 4800 4800"
 xmlns:xlink="http://www.w3.org/1999/xlink">
  <defs>
  <style type="text/css">
   <![CDATA[
    .svgFillBaseColor {fill:#000000}
    .svgFillAccent1   {fill:#FF0000}
    .svgFillAccent2   {fill:#FF6600}
    .svgFillAccent3   {fill:#06A9F4}
    .svgFillAccent4   {fill:#009933}
    .svgFillAccent5   {fill:#FFFF00}
   ]]>
  </style>
 </defs>
 <g id="Layer_x0020_1">
  <metadata id="CorelCorpID_0Corel-Layer"/>
  <g transform="matrix(1.00036 0 0 1 -35.1609 4640.24)">
   <text x="-12433" y="2400"  class="svgFillBaseColor" fill-rule="nonzero" font-weight="normal" font-size="1066.66px" font-family="Humanst521 BT">Apps\Public\Res\VGCore\AppFunctionalCore\RCBin\drwbtn_590.ico</text>
  </g>
  <path class="svgFillBaseColor" fill-rule="nonzero" d="M2700 900l600 0 0 -900 300 0 0 900 300 0 0 300 900 0 0 300 -900 0 0 600 -300 0 0 1200 1200 0 0 300 -1200 0 0 1200 -300 0 0 -1200 -1200 0 0 300 -600 0 0 900 -300 0 0 -900 -300 0 0 -300 -900 0 0 -300 900 0 0 -600 300 0 0 -1200 -1200 0 0 -300 1200 0 0 -1200 300 0 0 1200 1200 0 0 -300zm600 1200l-600 0 0 -600 -1200 0 0 1200 600 0 0 600 1200 0 0 -1200zm-1500 900l-600 0 0 600 600 0 0 -600zm1800 -1800l-600 0 0 600 600 0 0 -600z"/>
 </g>
</svg>
