<?xml version="1.0" encoding="UTF-8"?>
<!DOCTYPE svg PUBLIC "-//W3C//DTD SVG 1.1//EN" "http://www.w3.org/Graphics/SVG/1.1/DTD/svg11.dtd">
<!-- Creator: CorelDRAW -->
<svg xmlns="http://www.w3.org/2000/svg" xml:space="preserve" width="48px" height="48px" version="1.1" shape-rendering="geometricPrecision" text-rendering="geometricPrecision" image-rendering="optimizeQuality" fill-rule="evenodd" clip-rule="evenodd"
viewBox="0 0 4800 4800"
 xmlns:xlink="http://www.w3.org/1999/xlink">
 <g id="Layer_x0020_1">
  <metadata id="CorelCorpID_0Corel-Layer"/>
  <path fill="black" d="M2549 0l975 2610 -606 690 82 0 0 1500 -1500 0 0 -1500 79 0 -605 -690 975 -2610 151 0 300 0 149 0zm-449 449l-784 2098 617 703 631 0 617 -703 -781 -2091 0 1684c89,52 149,149 149,260 0,165 -134,299 -299,299 -166,0 -300,-134 -300,-299 0,-111 60,-208 150,-260l0 -1691zm600 3151l-900 0 0 900 900 0 0 -900z"/>
  <text x="-7944" y="7258"  fill="black" font-weight="normal" font-size="1066.66px" font-family="Humanst521 BT">apps/components/pentool/resdll/rcbin/pentool.ico</text>
 </g>
</svg>
