<?xml version="1.0" encoding="UTF-8"?>
<!DOCTYPE svg PUBLIC "-//W3C//DTD SVG 1.1//EN" "http://www.w3.org/Graphics/SVG/1.1/DTD/svg11.dtd">
<!-- Creator: CorelDRAW -->
<svg xmlns="http://www.w3.org/2000/svg" xml:space="preserve" width="48px" height="48px" version="1.1" shape-rendering="geometricPrecision" text-rendering="geometricPrecision" image-rendering="optimizeQuality" fill-rule="evenodd" clip-rule="evenodd"
viewBox="0 0 4800 4800"
 xmlns:xlink="http://www.w3.org/1999/xlink">
 <g id="Layer_x0020_1">
  <metadata id="CorelCorpID_0Corel-Layer"/>
  <text x="-7657" y="7040"  fill="black" font-weight="normal" font-size="1066.66px" font-family="Humanst521 BT">Engines\CrlFrmWk\RcBin\QuickCustomize.ico</text>
  <path fill="black" d="M2400 0c1325,0 2400,1075 2400,2400 0,1325 -1075,2400 -2400,2400 -1325,0 -2400,-1075 -2400,-2400 0,-1325 1075,-2400 2400,-2400zm1485 915c-380,-380 -905,-615 -1485,-615 -580,0 -1105,235 -1485,615 -380,380 -615,905 -615,1485 0,580 235,1105 615,1485 380,380 905,615 1485,615 580,0 1105,-235 1485,-615 380,-380 615,-905 615,-1485 0,-580 -235,-1105 -615,-1485z"/>
  <polygon fill="black" points="2100,600 2700,600 2700,2100 4200,2100 4200,2700 2700,2700 2700,4200 2100,4200 2100,2700 600,2700 600,2100 2100,2100 "/>
 </g>
</svg>
