<?xml version="1.0" encoding="UTF-8"?>
<!DOCTYPE svg PUBLIC "-//W3C//DTD SVG 1.1//EN" "http://www.w3.org/Graphics/SVG/1.1/DTD/svg11.dtd">
<!-- Creator: CorelDRAW X7 -->
<svg xmlns="http://www.w3.org/2000/svg" xml:space="preserve" width="0.499992in" height="0.499992in" version="1.1" style="shape-rendering:geometricPrecision; text-rendering:geometricPrecision; image-rendering:optimizeQuality; fill-rule:evenodd; clip-rule:evenodd"
viewBox="0 0 500 500"
 xmlns:xlink="http://www.w3.org/1999/xlink">
  <defs>
  <style type="text/css">
   <![CDATA[
    .svgFillBaseColor {fill:#000000}
    .svgFillAccent1   {fill:#FF0000}
    .svgFillAccent2   {fill:#FF6600}
    .svgFillAccent3   {fill:#06A9F4}
    .svgFillAccent4   {fill:#009933}
    .svgFillAccent5   {fill:#FFFF00}
   ]]>
  </style>
 </defs>
 <g id="Layer_x0020_1">
  <metadata id="CorelCorpID_0Corel-Layer"/>
  <g>
   <path class="svgFillAccent1" d="M391 0c60,0 109,49 109,109 0,61 -49,110 -109,110 -61,0 -110,-49 -110,-110 0,-60 49,-109 110,-109zm-78 94l156 0 0 31 -156 0 0 -31z"/>
   <path id="1" class="svgFillAccent1" d="M391 0c60,0 109,49 109,109 0,61 -49,110 -109,110 -61,0 -110,-49 -110,-110 0,-60 49,-109 110,-109zm-78 94l156 0 0 31 -156 0 0 -31zm133 -40c-14,-14 -34,-23 -55,-23 -22,0 -41,9 -56,23 -2,3 -5,6 -7,9l125 0c-2,-3 -5,-6 -7,-9zm0 111c2,-3 5,-6 7,-9l-125 0c2,3 5,6 7,9 15,14 34,23 56,23 21,0 41,-9 55,-23z"/>
  </g>
  <path class="svgFillBaseColor" fill-rule="nonzero" d="M187 500l0 -219 -62 0 0 219 -31 0 0 -219 -63 0 0 219 -31 0 0 -281 0 -6 5 -5 187 -182 27 -26 0 37 0 463 -32 0zm0 -386l0 -40 -156 152 0 24 20 0 136 -136z"/>
 </g>
</svg>
