<?xml version="1.0" encoding="UTF-8"?>
<!DOCTYPE svg PUBLIC "-//W3C//DTD SVG 1.1//EN" "http://www.w3.org/Graphics/SVG/1.1/DTD/svg11.dtd">
<!-- Creator: CorelDRAW -->
<svg xmlns="http://www.w3.org/2000/svg" xml:space="preserve" width="48px" height="48px" version="1.1" shape-rendering="geometricPrecision" text-rendering="geometricPrecision" image-rendering="optimizeQuality" fill-rule="evenodd" clip-rule="evenodd"
viewBox="0 0 4800 4800"
 xmlns:xlink="http://www.w3.org/1999/xlink">
 <defs>
  <style type="text/css">
   <![CDATA[
    .svgFillBaseColor {fill:#000000}
    .svgFillAccent1   {fill:#FF0000}
    .svgFillAccent2   {fill:#FF6600}
    .svgFillAccent3   {fill:#06A9F4}
    .svgFillAccent4   {fill:#009933}
    .svgFillAccent5   {fill:#FFFF00}
   ]]>
  </style>
 </defs>
 <g id="Layer_x0020_1">
  <metadata id="CorelCorpID_0Corel-Layer"/>
  <polygon class="svgFillBaseColor" fill-rule="nonzero" points="2700,2700 4796,3744 3756,4793 "/>
  <path class="svgFillBaseColor" fill-rule="nonzero" d="M921 1200c29,-130 65,-269 103,-396 48,-161 220,-625 289,-798l278 112c-65,161 -234,616 -280,771 -36,119 -64,212 -89,311l578 0 0 1200 -594 0c86,1207 874,2204 875,2206l-236 183c-2,-2 -849,-1085 -939,-2389l-306 0 0 -1200 321 0zm579 300l-600 0 0 600 600 0 0 -600z"/>
  <text x="-6415" y="8240"  class="svgFillBaseColor" fill-rule="nonzero" font-weight="normal" font-size="1066.66px" font-family="Humanst521 BT">Common\Res\CrlCmnRes\RCBin\comm_262.ico</text>
 </g>
</svg>
