<?xml version="1.0" encoding="UTF-8"?>
<!DOCTYPE svg PUBLIC "-//W3C//DTD SVG 1.1//EN" "http://www.w3.org/Graphics/SVG/1.1/DTD/svg11.dtd">
<!-- Creator: CorelDRAW 2018 -->
<svg xmlns="http://www.w3.org/2000/svg" xml:space="preserve" width="48px" height="48px" version="1.1" style="shape-rendering:geometricPrecision; text-rendering:geometricPrecision; image-rendering:optimizeQuality; fill-rule:evenodd; clip-rule:evenodd"
viewBox="0 0 48000 48000"
 xmlns:xlink="http://www.w3.org/1999/xlink">
 <defs>
  <style type="text/css">
    <![CDATA[
		.svgFillBaseColor {fill:#000000}
    .svgFillAccent1   {fill:#FF0000}
    .svgFillAccent2   {fill:#FF6600}
    .svgFillAccent3   {fill:#06A9F4}
    .svgFillAccent4   {fill:#009933}
    .svgFillAccent5   {fill:#FFFF00}
   ]]>
  </style>
 </defs>
 <g id="Layer_x0020_1">
  <metadata id="CorelCorpID_0Corel-Layer"/>
  <path class="svgFillBaseColor" d="M2996 32001l15004 -5001 27000 -27000 -3000 0 -21000 21000 -3000 -3000 18000 -18000 -6000 0 -15000 15000 -3000 -3000 12000 -12000 -3000 0 -15000 15000 -6000 18000 4 10996c45,400 179,794 326,1165 227,572 564,1091 995,1521 878,879 2030,1318 3181,1318 1150,0 2302,-439 3181,-1318 429,-429 764,-940 989,-1495l0 -6c190,-472 300,-981 320,-1503l9 0 0 -6203 -10 0c3,-185 39,-367 106,-535 70,-177 185,-348 338,-501 293,-292 677,-439 1061,-439 383,0 768,147 1059,438 147,147 260,318 333,500 71,170 109,352 113,534l0 3329c32,468 158,928 330,1360 227,571 564,1091 995,1521 878,879 2030,1318 3180,1318 1151,0 2303,-439 3182,-1318 429,-429 764,-940 988,-1496l0 -5c242,-599 324,-1146 324,-1788 8,-167 36,-300 97,-452 70,-177 185,-349 338,-502 293,-292 677,-439 1061,-439 383,0 768,147 1059,439 147,146 260,317 333,499 58,141 95,290 108,440l5 511c38,439 158,867 319,1272 227,571 564,1091 995,1521 878,879 2030,1318 3181,1318 1150,0 2302,-439 3181,-1318 429,-429 764,-940 988,-1496l0 -5c218,-540 331,-1077 324,-1675l0 -81c0,-402 174,-764 437,-1024 263,-258 626,-422 1032,-432l8 0 12 0 7 0 12 0 8 0 12 0 8 0c406,10 769,174 1031,432 264,260 438,622 438,1024l-1 81c-6,598 107,1135 324,1675l0 5c225,556 560,1067 989,1496 879,879 2031,1318 3181,1318 1151,0 2303,-439 3181,-1318 431,-430 767,-950 995,-1521 161,-405 281,-833 319,-1272l5 -511c13,-150 49,-299 107,-440 74,-182 187,-353 333,-499 292,-292 677,-439 1060,-439 384,0 768,147 1061,439 153,153 267,325 338,502 60,152 88,285 97,452 0,145 4,284 13,421l0 -4554c-487,-173 -998,-260 -1509,-260 -1150,0 -2302,439 -3181,1318 -429,429 -764,940 -989,1495l0 6c-197,488 -320,1015 -334,1554l1 255c-13,149 -44,295 -98,431 -71,177 -185,348 -338,501 -293,293 -677,440 -1061,440 -383,0 -768,-147 -1060,-439 -146,-146 -259,-317 -333,-499 -77,-188 -108,-391 -105,-591l2 -45 5 0c0,-1230 -509,-2347 -1330,-3157 -791,-781 -1872,-1272 -3065,-1299l-46 -1 -12 0 -46 0 -12 0 -45 0 -13 0 -45 1c-1193,27 -2275,518 -3065,1299 -822,810 -1330,1927 -1330,3157l5 0 2 45c3,200 -28,403 -106,591 -73,182 -186,353 -333,499 -291,292 -676,439 -1059,439 -384,0 -768,-147 -1061,-440 -153,-153 -268,-324 -338,-501 -54,-136 -86,-282 -98,-431l1 -255c-14,-539 -138,-1066 -335,-1554l0 -6c-224,-555 -559,-1066 -988,-1495 -879,-879 -2031,-1318 -3181,-1318 -1151,0 -2303,439 -3181,1318 -431,430 -768,949 -995,1521 -223,561 -332,1062 -315,1678l-6 105c-14,150 -42,299 -100,440 -73,182 -186,353 -333,499 -292,292 -676,439 -1060,439 -383,0 -768,-147 -1060,-440 -153,-153 -268,-324 -338,-501 -75,-187 -112,-392 -106,-599l-1 0 0 -3145c-18,-529 -142,-1018 -336,-1496l0 -6c-224,-555 -559,-1066 -988,-1495 -879,-879 -2031,-1318 -3181,-1318 -1151,0 -2303,439 -3181,1317 -431,431 -768,950 -995,1522 -206,516 -315,1071 -319,1636l0 0 0 6156c-14,147 -50,293 -107,431 -73,182 -186,353 -333,499 -291,292 -676,439 -1059,439 -384,0 -768,-147 -1061,-439 -153,-153 -268,-325 -338,-502 -54,-136 -89,-281 -101,-430l-10 -11628zm6004 -5001l-3000 -3000 3000 -9000 9000 9000 -9000 3000z"/>
 </g>
</svg>
