<?xml version="1.0" encoding="UTF-8"?>
<!DOCTYPE svg PUBLIC "-//W3C//DTD SVG 1.1//EN" "http://www.w3.org/Graphics/SVG/1.1/DTD/svg11.dtd">
<!-- Creator: CorelDRAW -->
<svg xmlns="http://www.w3.org/2000/svg" xml:space="preserve" width="48px" height="48px" version="1.1" shape-rendering="geometricPrecision" text-rendering="geometricPrecision" image-rendering="optimizeQuality" fill-rule="evenodd" clip-rule="evenodd"
viewBox="0 0 4800 4800"
 xmlns:xlink="http://www.w3.org/1999/xlink">
  <defs>
  <style type="text/css">
   <![CDATA[
    .svgFillBaseColor {fill:#000000}
    .svgFillAccent1   {fill:#FF0000}
    .svgFillAccent2   {fill:#FF6600}
    .svgFillAccent3   {fill:#06A9F4}
    .svgFillAccent4   {fill:#009933}
    .svgFillAccent5   {fill:#FFFF00}
   ]]>
  </style>
 </defs>
 <g id="Layer_x0020_1">
  <metadata id="CorelCorpID_0Corel-Layer"/>
  <g>
   <polygon class="svgFillBaseColor" fill-rule="nonzero" points="3000,600 4800,4200 3000,4200 3000,3900 4373,3900 3000,1200 "/>
  </g>
  <polygon class="svgFillBaseColor" fill-rule="nonzero" points="1800,4200 300,4200 0,4200 0,3900 0,3600 0,3300 300,3300 300,3000 300,2700 600,2700 600,2100 600,1800 900,1800 900,1200 900,900 1200,900 1200,600 1500,600 1800,600 1800,900 1500,900 1500,1200 1200,1200 1200,1800 1200,2100 900,2100 900,2700 900,3000 600,3000 600,3300 600,3600 300,3600 300,3900 1800,3900 "/>
  <polygon class="svgFillAccent2" points="2100,0 2700,0 2700,4800 2100,4800 "/>
  <text x="-13196" y="7258"  class="svgFillBaseColor" fill-rule="nonzero" font-weight="normal" font-size="1066.66px" font-family="Humanst521 BT">apps/components/shaperecognitiontool/resdll/rcbin/shaperecognition.ico</text>
 </g>
</svg>
