<?xml version="1.0" encoding="UTF-8"?>
<!DOCTYPE svg PUBLIC "-//W3C//DTD SVG 1.1//EN" "http://www.w3.org/Graphics/SVG/1.1/DTD/svg11.dtd">
<!-- Creator: CorelDRAW -->
<svg xmlns="http://www.w3.org/2000/svg" xml:space="preserve" width="48px" height="48px" version="1.1" shape-rendering="geometricPrecision" text-rendering="geometricPrecision" image-rendering="optimizeQuality" fill-rule="evenodd" clip-rule="evenodd"
viewBox="0 0 4800 4800"
 xmlns:xlink="http://www.w3.org/1999/xlink">
  <defs>
  <style type="text/css">
   <![CDATA[
    .svgFillBaseColor {fill:#000000}
    .svgFillAccent1   {fill:#FF0000}
    .svgFillAccent2   {fill:#FF6600}
    .svgFillAccent3   {fill:#06A9F4}
    .svgFillAccent4   {fill:#009933}
    .svgFillAccent5   {fill:#FFFF00}
   ]]>
  </style>
 </defs>
 <g id="Layer_x0020_1">
  <metadata id="CorelCorpID_0Corel-Layer"/>
  <path class="svgFillBaseColor" fill-rule="nonzero" d="M3646 1031c-11,-9 -24,-16 -37,-21 -19,-8 -39,-12 -58,-12 -42,0 -79,17 -107,45 -27,27 -43,65 -43,106 0,21 5,42 13,61 9,19 21,36 37,50l213 190c47,42 85,94 110,151 26,56 40,118 40,182 0,124 -49,237 -130,319 -81,81 -193,132 -317,133 -57,0 -112,-10 -164,-30 -38,-15 -74,-35 -107,-59 -8,-7 -22,-21 -33,-30 -7,-4 -14,-9 -21,-12 -21,-11 -44,-16 -68,-16 -22,0 -44,5 -65,15 -20,10 -38,24 -52,42l0 0 -369 369c135,177 215,397 215,636 0,290 -118,552 -308,742l0 0c-191,190 -453,308 -742,308 -238,0 -457,-79 -633,-212l-807 809 -211 -213 807 -809c-130,-174 -206,-391 -206,-625 0,-289 117,-552 307,-742l0 0c190,-190 453,-308 743,-308 232,0 447,76 621,204l355 -355c42,-54 90,-86 149,-115l1 0c59,-29 125,-45 194,-45 71,0 140,16 201,46 41,21 79,47 113,79 7,5 15,9 23,12l1 0c17,7 36,10 54,10 42,0 79,-17 107,-45 27,-27 43,-65 43,-106 0,-21 -5,-42 -14,-61 -8,-19 -21,-36 -36,-51l-215 -191c-47,-42 -83,-93 -109,-149 -25,-56 -39,-118 -39,-183 -1,-124 49,-237 130,-318 81,-82 193,-132 317,-133 61,0 121,11 175,34 54,23 105,56 148,100l223 219c13,15 30,26 49,34 18,8 38,13 58,13 42,0 79,-17 107,-44 27,-27 44,-65 45,-106 0,-21 -5,-43 -13,-62 -9,-19 -22,-36 -38,-51 -45,-55 -73,-79 -109,-149 -27,-57 -41,-120 -41,-185 -1,-124 49,-237 130,-318 81,-82 193,-133 317,-133 29,0 57,2 84,7 27,5 54,13 81,23l-108 279c-9,-4 -18,-6 -27,-8 -10,-2 -19,-3 -29,-3 -41,1 -79,18 -106,45 -27,28 -43,65 -43,107 0,21 5,43 14,62 8,19 20,35 36,49 45,37 88,101 112,153 25,58 39,121 38,185 0,125 -51,237 -132,317 -82,81 -195,131 -319,131 -61,-1 -121,-13 -175,-37l-1 0c-41,-17 -80,-42 -116,-72l-263 -258zm-1372 1698l-1040 1044c120,80 264,127 419,127 207,0 395,-84 530,-219l0 -1c136,-135 220,-323 220,-530 0,-156 -48,-301 -129,-421zm-1250 830l1036 -1039c-118,-76 -257,-120 -407,-120 -207,0 -395,84 -531,220l0 -1c-135,136 -219,324 -219,531 0,151 44,292 121,409z"/>
  <text x="-9776" y="7258"  class="svgFillBaseColor" fill-rule="nonzero" font-weight="normal" font-size="1066.66px" font-family="Humanst521 BT">apps/components/shaping/resdll/rcbin/smoothtool.ico</text>
 </g>
</svg>
