<?xml version="1.0" encoding="UTF-8"?>
<!DOCTYPE svg PUBLIC "-//W3C//DTD SVG 1.1//EN" "http://www.w3.org/Graphics/SVG/1.1/DTD/svg11.dtd">
<!-- Creator: CorelDRAW -->
<svg xmlns="http://www.w3.org/2000/svg" xml:space="preserve" width="48px" height="48px" version="1.1" shape-rendering="geometricPrecision" text-rendering="geometricPrecision" image-rendering="optimizeQuality" fill-rule="evenodd" clip-rule="evenodd"
viewBox="0 0 4800 4800"
 xmlns:xlink="http://www.w3.org/1999/xlink">
  <defs>
  <style type="text/css">
   <![CDATA[
    .svgFillBaseColor {fill:#000000}
    .svgFillAccent1   {fill:#FF0000}
    .svgFillAccent2   {fill:#FF6600}
    .svgFillAccent3   {fill:#06A9F4}
    .svgFillAccent4   {fill:#009933}
    .svgFillAccent5   {fill:#FFFF00}
   ]]>
  </style>
 </defs>
 <g id="Layer_x0020_1">
  <metadata id="CorelCorpID_0Corel-Layer"/>
  <path class="svgFillBaseColor" fill-rule="nonzero" d="M2700 2640c50,-77 199,-297 313,-495 66,-115 120,-215 133,-256 23,-68 35,-103 48,-138 129,-366 289,-822 -47,-1158 -196,-195 -452,-293 -708,-293 -255,0 -511,98 -707,293 -192,192 -268,369 -262,566 7,214 105,465 256,784 30,62 61,128 117,237 24,47 254,459 257,459l0 2161 -300 0 0 -2058c-111,-208 -179,-338 -224,-426 -52,-101 -86,-173 -120,-245 -167,-353 -276,-637 -284,-903 -9,-283 92,-531 348,-787 254,-254 587,-381 919,-381 333,0 666,127 920,381 469,469 274,1024 117,1469 -20,58 -40,113 -46,133 -22,66 -84,184 -157,311 -92,160 -205,345 -273,453l0 2053 -300 0 0 -2160 0 0z"/>
  <text x="-9925" y="7040"  class="svgFillBaseColor" fill-rule="nonzero" font-weight="normal" font-size="1066.66px" font-family="Humanst521 BT">Apps\PhotoPnt\Tools\BrushTool\RCBin\brush_10.ico</text>
 </g>
</svg>
