<?xml version="1.0" encoding="UTF-8"?>
<!DOCTYPE svg PUBLIC "-//W3C//DTD SVG 1.1//EN" "http://www.w3.org/Graphics/SVG/1.1/DTD/svg11.dtd">
<!-- Creator: CorelDRAW -->
<svg xmlns="http://www.w3.org/2000/svg" xml:space="preserve" width="48px" height="48px" version="1.1" shape-rendering="geometricPrecision" text-rendering="geometricPrecision" image-rendering="optimizeQuality" fill-rule="evenodd" clip-rule="evenodd"
viewBox="0 0 4800 4800"
 xmlns:xlink="http://www.w3.org/1999/xlink">
 <g id="Layer_x0020_1">
  <metadata id="CorelCorpID_0Corel-Layer"/>
  <polygon fill="black" points="4800,2400 3600,3000 3600,1800 "/>
  <path fill="black" fill-rule="nonzero" d="M301 300c26,187 489,1456 1061,1529 268,34 455,132 561,258 72,84 109,181 113,282 4,99 -24,198 -83,290 -99,157 -293,297 -571,373 -524,144 -1029,1248 -1075,1468l2023 0c-437,-691 -16,-1470 88,-1588 1,-1 1,-1 1,0l1 1c11,-19 24,-33 43,-53 91,-96 454,-478 3,-941 -493,-506 -299,-1338 -132,-1619l-2033 0zm2399 4200l0 300 -2700 0 0 -300c15,-87 540,-1547 1304,-1756 200,-55 333,-147 396,-246 26,-40 39,-81 37,-117 -1,-34 -15,-69 -42,-100 -62,-73 -183,-132 -371,-156 -868,-111 -1323,-1820 -1324,-1825l0 -300 2700 0 0 300c-38,43 -515,902 -20,1410 652,669 131,1218 0,1356 -2,2 -2,1 -1,-1l-1 -1c-10,18 -20,29 -35,46 -81,92 -411,807 57,1390zm-21 -1435c1,-3 3,-9 0,-2l-1 1 1 1zm-260 -150l1 -2 -1 -1c-1,4 -5,12 0,3l0 0z"/>
  <text x="-8937" y="7340"  fill="black" font-weight="normal" font-size="1066.66px" font-family="Humanst521 BT">Apps\PhotoPnt\Tools\BrushTool\RCBin\LiquidToolSmear.ico</text>
 </g>
</svg>
