<?xml version="1.0" encoding="UTF-8"?>
<!DOCTYPE svg PUBLIC "-//W3C//DTD SVG 1.1//EN" "http://www.w3.org/Graphics/SVG/1.1/DTD/svg11.dtd">
<!-- Creator: CorelDRAW -->
<svg xmlns="http://www.w3.org/2000/svg" xml:space="preserve" width="48px" height="48px" version="1.1" shape-rendering="geometricPrecision" text-rendering="geometricPrecision" image-rendering="optimizeQuality" fill-rule="evenodd" clip-rule="evenodd"
viewBox="0 0 4800 4800"
 xmlns:xlink="http://www.w3.org/1999/xlink">
  <defs>
  <style type="text/css">
   <![CDATA[
    .svgFillBaseColor {fill:#000000}
    .svgFillAccent1   {fill:#FF0000}
    .svgFillAccent2   {fill:#FF6600}
    .svgFillAccent3   {fill:#06A9F4}
    .svgFillAccent4   {fill:#009933}
    .svgFillAccent5   {fill:#FFFF00}
   ]]>
  </style>
 </defs>
 <g id="Layer_x0020_1">
  <metadata id="CorelCorpID_0Corel-Layer"/>
  <polygon class="svgFillBaseColor" fill-rule="nonzero" points="600,1500 1500,1500 1500,600 1200,600 1650,0 2100,600 1800,600 1800,1500 2700,1500 2700,1200 3300,1650 2700,2100 2700,1800 1800,1800 1800,2700 2100,2700 1650,3300 1200,2700 1500,2700 1500,1800 600,1800 600,2100 0,1650 600,1200 "/>
  <g>
   <path class="svgFillBaseColor" fill-rule="nonzero" d="M3900 3600l300 0c-22,-150 -106,-304 -209,-398 -136,-124 -330,-195 -548,-195 -208,0 -396,84 -532,219 -134,134 -218,319 -218,524 0,199 92,381 233,514 150,141 354,229 567,229l0 307c-290,0 -567,-119 -769,-310 -201,-190 -331,-451 -331,-740 0,-290 119,-553 310,-744 190,-189 452,-306 740,-306 291,0 556,99 747,273 165,150 286,384 310,627l300 0 -450 585 -450 -585z"/>
  </g>
  <text x="-12277" y="8241"  class="svgFillBaseColor" fill-rule="nonzero" font-weight="normal" font-size="1066.66px" font-family="Humanst521 BT">Apps\Public\Res\VGCore\AppFunctionalCore\RCBin\drwbtn_397.ico</text>
 </g>
</svg>
