<?xml version="1.0" encoding="UTF-8"?>
<!DOCTYPE svg PUBLIC "-//W3C//DTD SVG 1.1//EN" "http://www.w3.org/Graphics/SVG/1.1/DTD/svg11.dtd">
<!-- Creator: CorelDRAW -->
<svg xmlns="http://www.w3.org/2000/svg" xml:space="preserve" width="48px" height="48px" version="1.1" shape-rendering="geometricPrecision" text-rendering="geometricPrecision" image-rendering="optimizeQuality" fill-rule="evenodd" clip-rule="evenodd"
viewBox="0 0 4800 4800"
 xmlns:xlink="http://www.w3.org/1999/xlink">
 <defs>
  <style type="text/css">
   <![CDATA[
    .svgFillBaseColor {fill:#000000}
    .svgFillAccent1   {fill:#FF0000}
    .svgFillAccent2   {fill:#FF6600}
    .svgFillAccent3   {fill:#06A9F4}
    .svgFillAccent4   {fill:#009933}
    .svgFillAccent5   {fill:#FFFF00}
   ]]>
  </style>
 </defs>
 <g id="Layer_x0020_1">
  <metadata id="CorelCorpID_0Corel-Layer"/>
  <path class="svgFillBaseColor" fill-rule="nonzero" d="M4800 3675c-201,347 -502,629 -863,824 -359,193 -776,301 -1211,301 -639,0 -1219,-229 -1640,-600 -428,-376 -692,-897 -692,-1473 0,-363 106,-712 300,-1018 191,-302 460,-555 805,-742l9 -5c220,-86 460,-128 699,-127 244,1 487,46 707,136 115,47 220,104 313,169 229,159 389,365 470,591 83,232 82,481 -15,719 -30,73 -69,146 -118,217 -93,135 -217,254 -363,351 -138,91 -297,165 -471,214l0 3c-13,2 -30,4 -49,6l-1 0c-20,2 -37,3 -49,3 -140,0 -267,-56 -359,-148l1 -1c-92,-92 -149,-219 -149,-359 0,-114 38,-221 105,-308 61,-80 145,-142 245,-174 11,-10 20,-21 29,-33 23,-34 36,-78 36,-125 0,-58 -20,-109 -53,-146 -29,-32 -69,-52 -111,-52 -8,0 -13,1 -15,1 -2,0 -15,3 -15,2 -150,36 -286,92 -402,165l0 1c-116,72 -213,161 -283,263 -33,48 -60,96 -80,145 -60,150 -61,305 -9,449 54,150 164,290 324,402 72,50 153,94 243,131 182,74 383,110 583,107 194,-2 387,-40 562,-114 271,-157 489,-366 639,-606 151,-242 234,-516 234,-800 0,-465 -219,-888 -574,-1195 -362,-313 -864,-506 -1420,-506 -411,0 -801,107 -1125,297 -321,187 -578,453 -728,775l-309 -145c180,-386 486,-705 866,-926 375,-220 824,-344 1296,-344 640,0 1221,226 1643,591 428,370 693,884 693,1453 0,348 -102,685 -288,982 -184,294 -449,548 -781,735l-3 1c-218,94 -459,141 -702,144 -245,2 -491,-41 -714,-132 -114,-46 -218,-102 -310,-167 -218,-152 -372,-351 -450,-568 -80,-223 -79,-463 14,-692 29,-73 68,-144 115,-213 97,-139 228,-261 383,-358l1 0c150,-94 323,-166 510,-209l0 0 0 0 1 0 1 -1 1 0 0 0 2 0 0 0c14,-3 29,-6 45,-7 20,-2 37,-3 52,-3 142,0 271,62 363,164 89,97 143,230 143,376 0,116 -35,226 -96,316 -63,93 -154,165 -262,200l0 -1c-9,8 -16,16 -23,25 -22,28 -34,63 -34,100 0,46 18,88 48,117l0 0c30,30 71,49 117,49l14 -1c135,-39 260,-97 368,-168 110,-74 202,-162 271,-260 33,-49 61,-100 81,-151 65,-158 66,-324 11,-476 -57,-159 -174,-307 -342,-425 -73,-50 -156,-95 -248,-133 -182,-74 -381,-111 -580,-112 -196,-1 -393,34 -572,103 -275,158 -497,369 -652,614 -159,251 -246,537 -246,834 0,474 219,904 574,1216 361,318 862,514 1416,514 378,0 740,-93 1049,-260 307,-165 562,-403 730,-694l295 172z"/>
  <text x="-8425" y="7258"  class="svgFillBaseColor" fill-rule="nonzero" font-weight="normal" font-size="1066.66px" font-family="Humanst521 BT">Apps\PhotoPnt\Tools\BrushTool\RCBin\LiquidToolTwirl.ico</text>
 </g>
</svg>
